<svg fill="#fff" xmlns="http://www.w3.org/2000/svg" height="48" viewBox="0 -960 960 960" width="48"><path d="M618.588-528q23.912 0 41.662-17.338Q678-562.677 678-586.588q0-23.912-17.544-41.662T618.706-646q-24.206 0-40.956 17.191Q561-611.618 561-587.059t16.797 41.809Q594.593-528 618.588-528Zm-277.294 0q24.206 0 40.956-16.985Q399-561.971 399-586.235q0-24.265-16.797-42.015Q365.407-646 341.412-646q-23.912 0-41.662 17.544T282-586.706q0 24.206 17.544 41.456Q317.088-528 341.294-528ZM480-263q69.039 0 125.02-38.175Q661-339.35 684-402H276q24 62.65 79.48 100.825Q410.961-263 480-263Zm.054 204q-86.544 0-163.647-32.656-77.104-32.655-134.81-90.065-57.707-57.409-90.152-134.545Q59-393.401 59-479.946q0-86.544 32.656-163.647 32.655-77.104 89.907-134.863 57.253-57.759 134.462-90.652Q393.234-902 479.862-902q86.628 0 163.85 33.026 77.221 33.025 134.906 90.354 57.684 57.33 90.533 134.643Q902-566.663 902-479.917q0 86.683-33.103 163.77t-90.565 134.672q-57.462 57.585-134.598 90.03Q566.599-59 480.054-59Z"/></svg>